<svg width="48" height="48" viewBox="0 0 48 48" fill="none" xmlns="http://www.w3.org/2000/svg">
<path d="M0.774148 24.7756C0.979465 24.7756 1.17637 24.6941 1.32155 24.5489C1.46673 24.4037 1.5483 24.2068 1.5483 24.0015C1.5483 23.4983 1.5483 22.9951 1.59474 22.5074C1.60135 22.4057 1.58787 22.3038 1.55507 22.2073C1.52227 22.1108 1.4708 22.0218 1.40358 21.9452C1.33637 21.8687 1.25473 21.8061 1.16334 21.7611C1.07194 21.7161 0.972579 21.6895 0.870916 21.6829C0.769254 21.6763 0.667285 21.6898 0.570832 21.7226C0.47438 21.7554 0.385332 21.8069 0.308773 21.8741C0.232214 21.9413 0.169643 22.0229 0.124634 22.1143C0.0796242 22.2057 0.0530569 22.3051 0.0464488 22.4067C-4.32589e-08 22.9332 0 23.4751 0 24.0015C0 24.2068 0.0815617 24.4037 0.226743 24.5489C0.371923 24.6941 0.568831 24.7756 0.774148 24.7756ZM2.26051 15.78C2.06648 15.7135 1.85396 15.7266 1.66962 15.8166C1.48528 15.9066 1.34419 16.0661 1.27734 16.26C0.949969 17.2526 0.691308 18.2666 0.503196 19.2947C0.464363 19.4947 0.505985 19.702 0.61903 19.8716C0.732075 20.0412 0.907424 20.1593 1.10703 20.2004C1.15836 20.2081 1.21053 20.2081 1.26186 20.2004C1.44297 20.2041 1.61963 20.1441 1.76108 20.0309C1.90253 19.9178 1.99982 19.7586 2.03601 19.5811C2.2273 18.6197 2.48598 17.6729 2.81016 16.7477C2.8394 16.6481 2.8483 16.5436 2.83633 16.4405C2.82436 16.3373 2.79177 16.2376 2.74048 16.1474C2.6892 16.0571 2.62028 15.978 2.53783 15.9149C2.45537 15.8518 2.36106 15.8059 2.26051 15.78ZM43.9251 10.6242C43.8104 10.4558 43.6339 10.3394 43.4339 10.3002C43.2339 10.2611 43.0266 10.3024 42.8568 10.4152C42.7717 10.4714 42.6986 10.5439 42.6416 10.6285C42.5846 10.7131 42.5449 10.8082 42.5248 10.9082C42.5046 11.0082 42.5044 11.1112 42.5242 11.2112C42.544 11.3113 42.5834 11.4065 42.6401 11.4913C43.1918 12.3007 43.6884 13.1465 44.1264 14.0227C44.1897 14.1518 44.2876 14.2608 44.4093 14.3374C44.531 14.4139 44.6716 14.4551 44.8154 14.4562C44.9366 14.4555 45.0559 14.4264 45.1638 14.3711C45.3475 14.2797 45.4873 14.119 45.5527 13.9245C45.618 13.73 45.6034 13.5175 45.5121 13.3337C45.0406 12.3981 44.5105 11.4932 43.9251 10.6242ZM40.8518 9.16882C40.9243 9.2514 41.0136 9.31758 41.1137 9.36296C41.2138 9.40835 41.3225 9.43189 41.4324 9.43203C41.6206 9.43176 41.8022 9.36296 41.9433 9.23849C42.0971 9.10288 42.1909 8.91177 42.2039 8.70713C42.217 8.50248 42.1483 8.30102 42.013 8.14694C41.3215 7.36126 40.5793 6.62166 39.7912 5.93288C39.715 5.86256 39.6255 5.80826 39.5279 5.7732C39.4304 5.73814 39.3268 5.72303 39.2232 5.72877C39.1197 5.73451 39.0184 5.76098 38.9253 5.80661C38.8323 5.85224 38.7493 5.91611 38.6813 5.99442C38.6134 6.07273 38.5619 6.16388 38.5299 6.26248C38.4978 6.36108 38.4859 6.4651 38.4948 6.56839C38.5038 6.67167 38.5333 6.77211 38.5818 6.86375C38.6303 6.95539 38.6967 7.03635 38.7771 7.10184C39.5123 7.74553 40.2053 8.43596 40.8518 9.16882ZM3.17401 14.4795C3.31828 14.4805 3.45996 14.4411 3.58307 14.3659C3.70618 14.2907 3.80582 14.1825 3.87074 14.0537C4.30482 13.176 4.79617 12.3277 5.34162 11.5145C5.39831 11.4297 5.43768 11.3345 5.45746 11.2344C5.47725 11.1344 5.47707 11.0314 5.45693 10.9314C5.43678 10.8314 5.39708 10.7364 5.34009 10.6518C5.2831 10.5672 5.20996 10.4947 5.12486 10.4384C4.95512 10.3256 4.74776 10.2843 4.54775 10.3234C4.34775 10.3626 4.17125 10.479 4.05653 10.6474C3.48272 11.5191 2.96555 12.4267 2.50824 13.3647C2.46332 13.4562 2.4369 13.5556 2.43049 13.6573C2.42408 13.759 2.43782 13.8609 2.4709 13.9573C2.50399 14.0537 2.55577 14.1426 2.62329 14.2189C2.6908 14.2952 2.77272 14.3575 2.86435 14.4021C2.96107 14.4491 3.06653 14.4755 3.17401 14.4795ZM28.6435 0.451914C28.5433 0.431654 28.4401 0.431428 28.3398 0.45125C28.2396 0.471073 28.1442 0.510551 28.0593 0.567407C27.9744 0.624264 27.9016 0.697373 27.845 0.782517C27.7885 0.867662 27.7494 0.963156 27.73 1.06349C27.7097 1.16366 27.7095 1.26685 27.7293 1.36711C27.7491 1.46737 27.7886 1.56271 27.8455 1.64764C27.9023 1.73256 27.9754 1.80539 28.0606 1.86192C28.1457 1.91844 28.2412 1.95755 28.3416 1.97699C29.3021 2.17197 30.2487 2.43059 31.1749 2.75113C31.2546 2.77843 31.3385 2.79153 31.4227 2.78984C31.5915 2.79865 31.7585 2.75196 31.8983 2.65691C32.0381 2.56185 32.1429 2.42365 32.1968 2.26342C32.2607 2.06938 32.2452 1.85796 32.1539 1.67525C32.0625 1.49254 31.9026 1.35334 31.7091 1.28799C30.708 0.93793 29.6836 0.65855 28.6435 0.451914ZM9.20462 7.11733C9.35963 6.98182 9.45447 6.79028 9.46826 6.58485C9.48205 6.37942 9.41367 6.17692 9.27816 6.02191C9.14265 5.86689 8.95111 5.77206 8.74568 5.75827C8.54025 5.74447 8.33776 5.81286 8.18274 5.94836C7.399 6.6392 6.65951 7.37868 5.96868 8.16243C5.8956 8.23951 5.83916 8.3308 5.80288 8.43063C5.76659 8.53046 5.75124 8.63669 5.75778 8.7427C5.76431 8.84872 5.79259 8.95226 5.84086 9.04687C5.88913 9.14149 5.95636 9.22516 6.03835 9.29268C6.19242 9.42801 6.39389 9.49667 6.59854 9.48361C6.80318 9.47055 6.99429 9.37682 7.1299 9.22301C7.77319 8.47513 8.46635 7.77163 9.20462 7.11733ZM22.5122 1.59765C23.4892 1.53581 24.4692 1.53581 25.4462 1.59765C25.6504 1.6104 25.8513 1.54183 26.005 1.40693C26.1588 1.27204 26.2529 1.08177 26.2668 0.877696C26.2742 0.775981 26.2614 0.673812 26.2292 0.577058C26.1969 0.480304 26.1459 0.390873 26.079 0.313902C26.0121 0.23693 25.9307 0.173936 25.8393 0.128537C25.748 0.083138 25.6486 0.0562295 25.5469 0.0493575C24.5028 -0.0164525 23.4556 -0.0164525 22.4116 0.0493575C22.2063 0.0565436 22.0122 0.144997 21.8721 0.295259C21.732 0.445522 21.6573 0.645284 21.6645 0.850601C21.6717 1.05592 21.7602 1.24997 21.9104 1.39007C22.0607 1.53017 22.2605 1.60484 22.4658 1.59765H22.5122ZM14.4224 2.82081C14.3309 2.63712 14.1703 2.49725 13.9758 2.43192C13.7813 2.3666 13.5688 2.38117 13.385 2.47244C12.4469 2.92962 11.5393 3.44679 10.6678 4.02074C10.5299 4.11336 10.4255 4.24784 10.37 4.40433C10.3144 4.56082 10.3107 4.73102 10.3593 4.88981C10.4079 5.0486 10.5062 5.18755 10.6398 5.28616C10.7734 5.38477 10.9352 5.4378 11.1013 5.43743C11.253 5.43624 11.4011 5.39048 11.5271 5.30582C12.3423 4.77525 13.1904 4.2969 14.0663 3.87365C14.1599 3.82913 14.2436 3.76626 14.3124 3.68878C14.3813 3.61129 14.4339 3.52077 14.4671 3.42258C14.5003 3.32439 14.5135 3.22053 14.5058 3.11716C14.4981 3.01378 14.4697 2.91301 14.4224 2.82081ZM16.5281 2.7821C16.6126 2.78025 16.6963 2.76456 16.7758 2.73565C17.7032 2.41876 18.6495 2.16021 19.6092 1.9615C19.8088 1.9204 19.9841 1.80225 20.0972 1.63268C20.2102 1.46311 20.2518 1.25581 20.213 1.05575C20.1737 0.854716 20.0562 0.677469 19.8865 0.562838C19.7167 0.448206 19.5084 0.405536 19.3072 0.444173C18.2737 0.653996 17.2548 0.93069 16.2571 1.27251C16.081 1.33029 15.9314 1.44935 15.8357 1.60803C15.7399 1.76672 15.7042 1.9545 15.7351 2.13725C15.7661 2.32001 15.8615 2.4856 16.0042 2.60393C16.1469 2.72226 16.3273 2.78548 16.5126 2.7821H16.5281ZM45.2412 16.7322C45.5606 17.6562 45.8192 18.6001 46.0153 19.5579C46.0499 19.7368 46.1465 19.8978 46.2882 20.0125C46.4298 20.1272 46.6073 20.1883 46.7895 20.1849H46.9443C47.044 20.1646 47.1386 20.1249 47.2229 20.068C47.3072 20.0111 47.3794 19.9381 47.4355 19.8533C47.4916 19.7685 47.5304 19.6734 47.5497 19.5736C47.569 19.4737 47.5685 19.3711 47.5482 19.2714C47.3564 18.2467 47.0978 17.2355 46.774 16.2445C46.7073 16.0495 46.5658 15.8889 46.3807 15.7982C46.1956 15.7074 45.982 15.694 45.787 15.7607C45.5919 15.8274 45.4314 15.9689 45.3406 16.154C45.2499 16.3391 45.2364 16.5527 45.3031 16.7477L45.2412 16.7322ZM34.5889 2.45696C34.4011 2.36559 34.1846 2.3526 33.9871 2.42083C33.7897 2.48907 33.6274 2.63294 33.5361 2.82081C33.4447 3.00867 33.4317 3.22514 33.5 3.42258C33.5682 3.62003 33.7121 3.78228 33.8999 3.87365C34.7807 4.30377 35.6316 4.79259 36.4469 5.33679C36.5716 5.4241 36.7205 5.47013 36.8727 5.46839C37.0387 5.46876 37.2005 5.41573 37.3341 5.31712C37.4677 5.21852 37.5661 5.07956 37.6147 4.92077C37.6632 4.76199 37.6595 4.59178 37.6039 4.43529C37.5484 4.2788 37.444 4.14432 37.3062 4.0517C36.4349 3.46351 35.5273 2.93087 34.5889 2.45696ZM47.1224 21.679C47.0206 21.6859 46.9212 21.7128 46.8299 21.7582C46.7386 21.8036 46.6572 21.8666 46.5903 21.9436C46.5233 22.0206 46.4723 22.11 46.4401 22.2067C46.4078 22.3035 46.395 22.4057 46.4024 22.5074C46.4024 22.9951 46.4489 23.4983 46.4489 24.0015C46.4489 24.2068 46.5304 24.4037 46.6756 24.5489C46.8208 24.6941 47.0177 24.7756 47.223 24.7756C47.4283 24.7756 47.6252 24.6941 47.7704 24.5489C47.9156 24.4037 47.9972 24.2068 47.9972 24.0015C47.9972 23.4751 47.9972 22.9332 47.943 22.4067C47.9371 22.305 47.9111 22.2055 47.8666 22.1138C47.8222 22.0221 47.76 21.9401 47.6838 21.8725C47.6075 21.8049 47.5187 21.753 47.4224 21.7198C47.326 21.6866 47.2241 21.6728 47.1224 21.679ZM34.0625 12.3196C32.9101 13.6835 31.4923 14.7987 29.8952 15.5972C28.2982 16.3958 26.5553 16.861 24.7727 16.9645V17.8083C24.7727 18.0136 24.6912 18.2105 24.546 18.3557C24.4008 18.5009 24.2039 18.5825 23.9986 18.5825C23.7933 18.5825 23.5964 18.5009 23.4512 18.3557C23.306 18.2105 23.2244 18.0136 23.2244 17.8083V17.0342C21.4419 16.9306 19.699 16.4654 18.102 15.6669C16.5049 14.8684 15.087 13.7532 13.9347 12.3893V22.4532H34.0625V12.3196Z" fill="#FF8900"/>
<path d="M18.9669 7.74423V10.0667H14.1904C15.2381 11.7199 16.6866 13.0814 18.4014 14.0248C20.1162 14.9683 22.0417 15.463 23.9989 15.463C25.9561 15.463 27.8815 14.9683 29.5963 14.0248C31.3111 13.0814 32.7597 11.7199 33.8073 10.0667H29.0308V7.74423C29.0308 7.43625 28.9085 7.14089 28.6907 6.92312C28.473 6.70535 28.1776 6.58301 27.8696 6.58301H20.1281C19.8202 6.58301 19.5248 6.70535 19.307 6.92312C19.0893 7.14089 18.9669 7.43625 18.9669 7.74423ZM21.2894 8.90545H26.7084V10.0667H21.2894V8.90545Z" fill="#FF8900"/>
<path d="M37.9332 41.0327C40.071 41.0327 41.804 39.2997 41.804 37.162C41.804 35.0242 40.071 33.2913 37.9332 33.2913C35.7955 33.2913 34.0625 35.0242 34.0625 37.162C34.0625 39.2997 35.7955 41.0327 37.9332 41.0327Z" fill="#FF8900"/>
<path d="M43.3521 41.8069H32.514C31.2821 41.8069 30.1007 42.2963 29.2296 43.1673C28.3585 44.0384 27.8691 45.2199 27.8691 46.4518V48.0001H47.997V46.4518C47.997 45.2199 47.5076 44.0384 46.6365 43.1673C45.7654 42.2963 44.584 41.8069 43.3521 41.8069Z" fill="#FF8900"/>
<path d="M10.0641 41.0327C12.2018 41.0327 13.9348 39.2997 13.9348 37.162C13.9348 35.0242 12.2018 33.2913 10.0641 33.2913C7.92635 33.2913 6.19336 35.0242 6.19336 37.162C6.19336 39.2997 7.92635 41.0327 10.0641 41.0327Z" fill="#FF8900"/>
<path d="M20.1278 46.4518C20.1278 45.2199 19.6385 44.0384 18.7674 43.1673C17.8963 42.2963 16.7149 41.8069 15.483 41.8069H4.64489C3.41299 41.8069 2.23154 42.2963 1.36046 43.1673C0.489371 44.0384 0 45.2199 0 46.4518V48.0001H20.1278V46.4518Z" fill="#FF8900"/>
</svg>
