<svg width="48" height="48" viewBox="0 0 48 48" fill="none" xmlns="http://www.w3.org/2000/svg">
<path d="M43.5 0H27C26.5858 0 26.25 0.33573 26.25 0.75V5.67554C26.25 5.97298 26.4257 6.24225 26.698 6.36209L43.198 13.6221C43.6936 13.8402 44.25 13.4771 44.25 12.9356V0.75C44.25 0.33573 43.9142 0 43.5 0ZM33 6H31.5C31.0858 6 30.75 5.66421 30.75 5.25V3.75C30.75 3.33579 31.0858 3 31.5 3H33C33.4142 3 33.75 3.33579 33.75 3.75V5.25C33.75 5.66421 33.4142 6 33 6ZM39 6H37.5C37.0858 6 36.75 5.66421 36.75 5.25V3.75C36.75 3.33579 37.0858 3 37.5 3H39C39.4142 3 39.75 3.33579 39.75 3.75V5.25C39.75 5.66421 39.4142 6 39 6ZM21 0H4.5C4.08582 0 3.75 0.33573 3.75 0.75V5.67554C3.75 5.973 3.92569 6.24225 4.19797 6.36209L20.698 13.6221C21.1936 13.8402 21.75 13.4771 21.75 12.9356V0.75C21.75 0.33573 21.4142 0 21 0ZM10.5 6H9C8.58579 6 8.25 5.66421 8.25 5.25V3.75C8.25 3.33579 8.58579 3 9 3H10.5C10.9142 3 11.25 3.33579 11.25 3.75V5.25C11.25 5.66421 10.9142 6 10.5 6ZM16.5 6H15C14.5858 6 14.25 5.66421 14.25 5.25V3.75C14.25 3.33579 14.5858 3 15 3H16.5C16.9142 3 17.25 3.33579 17.25 3.75V5.25C17.25 5.66421 16.9142 6 16.5 6Z" fill="#FF8900"/>
<path d="M43.0951 45C42.69 45 42.3451 44.6701 42.3451 44.25C42.3451 43.8301 42.69 43.5 43.0951 43.5H45C45.4142 43.5 45.75 43.1642 45.75 42.75V17.04C45.75 16.755 45.57 16.485 45.315 16.3651L25.815 7.56008C25.305 7.33505 24.75 7.69503 24.75 8.235L24.7201 44.22C24.7351 44.61 24.4351 44.9551 24.045 45H23.9701C23.565 44.9551 23.265 44.61 23.295 44.2051L23.25 17.04C23.25 16.755 23.07 16.485 22.815 16.3651L3.31503 7.56008C2.805 7.33505 2.25 7.69503 2.25 8.235V42.75C2.25 43.1642 2.58579 43.5 3 43.5H4.89001C5.29504 43.5 5.64001 43.845 5.64001 44.25C5.64001 44.6701 5.29504 45 4.89001 45H0.75C0.33579 45 0 45.3358 0 45.75V47.25C0 47.6642 0.33579 48 0.75 48H47.25C47.6642 48 48 47.6642 48 47.25V45.75C48 45.3358 47.6642 45 47.25 45H43.0951ZM12 20.0101H13.5C13.9142 20.0101 14.25 20.3459 14.25 20.7601V22.2601C14.25 22.6743 13.9142 23.0101 13.5 23.0101H12C11.5858 23.0101 11.25 22.6743 11.25 22.2601V20.7601C11.25 20.3459 11.5858 20.0101 12 20.0101ZM12 26.0101H13.5C13.9142 26.0101 14.25 26.3459 14.25 26.7601V28.2601C14.25 28.6743 13.9142 29.0101 13.5 29.0101H12C11.5858 29.0101 11.25 28.6743 11.25 28.2601V26.7601C11.25 26.3458 11.5858 26.0101 12 26.0101ZM12 32.0101H13.5C13.9142 32.0101 14.25 32.3459 14.25 32.7601V34.2601C14.25 34.6743 13.9142 35.0101 13.5 35.0101H12C11.5858 35.0101 11.25 34.6743 11.25 34.2601V32.7601C11.25 32.3458 11.5858 32.0101 12 32.0101ZM7.5 35.0101H6C5.58579 35.0101 5.25 34.6743 5.25 34.2601V32.7601C5.25 32.3459 5.58579 32.0101 6 32.0101H7.5C7.91421 32.0101 8.25 32.3459 8.25 32.7601V34.2601C8.25 34.6743 7.91421 35.0101 7.5 35.0101ZM7.5 29.0101H6C5.58579 29.0101 5.25 28.6743 5.25 28.2601V26.7601C5.25 26.3459 5.58579 26.0101 6 26.0101H7.5C7.91421 26.0101 8.25 26.3459 8.25 26.7601V28.2601C8.25 28.6743 7.91421 29.0101 7.5 29.0101ZM7.5 23.0101H6C5.58579 23.0101 5.25 22.6743 5.25 22.2601V20.7601C5.25 20.3459 5.58579 20.0101 6 20.0101H7.5C7.91421 20.0101 8.25 20.3459 8.25 20.7601V22.2601C8.25 22.6743 7.91421 23.0101 7.5 23.0101ZM16.1101 45H11.25C10.4216 45 9.75 44.3284 9.75 43.5V39.5101C9.75 38.6816 10.4216 38.0101 11.25 38.0101H16.1101C16.9385 38.0101 17.6101 38.6816 17.6101 39.5101V43.5C17.6101 44.3285 16.9385 45 16.1101 45ZM19.5 35.0101H18C17.5858 35.0101 17.25 34.6743 17.25 34.2601V32.7601C17.25 32.3459 17.5858 32.0101 18 32.0101H19.5C19.9142 32.0101 20.25 32.3459 20.25 32.7601V34.2601C20.25 34.6743 19.9142 35.0101 19.5 35.0101ZM19.5 29.0101H18C17.5858 29.0101 17.25 28.6743 17.25 28.2601V26.7601C17.25 26.3459 17.5858 26.0101 18 26.0101H19.5C19.9142 26.0101 20.25 26.3459 20.25 26.7601V28.2601C20.25 28.6743 19.9142 29.0101 19.5 29.0101ZM19.5 23.0101H18C17.5858 23.0101 17.25 22.6743 17.25 22.2601V20.7601C17.25 20.3459 17.5858 20.0101 18 20.0101H19.5C19.9142 20.0101 20.25 20.3459 20.25 20.7601V22.2601C20.25 22.6743 19.9142 23.0101 19.5 23.0101ZM40.5 20.0101H42C42.4142 20.0101 42.75 20.3459 42.75 20.7601V22.2601C42.75 22.6743 42.4142 23.0101 42 23.0101H40.5C40.0858 23.0101 39.75 22.6743 39.75 22.2601V20.7601C39.75 20.3459 40.0858 20.0101 40.5 20.0101ZM40.5 26.0101H42C42.4142 26.0101 42.75 26.3459 42.75 26.7601V28.2601C42.75 28.6743 42.4142 29.0101 42 29.0101H40.5C40.0858 29.0101 39.75 28.6743 39.75 28.2601V26.7601C39.75 26.3458 40.0858 26.0101 40.5 26.0101ZM40.5 32.0101H42C42.4142 32.0101 42.75 32.3459 42.75 32.7601V34.2601C42.75 34.6743 42.4142 35.0101 42 35.0101H40.5C40.0858 35.0101 39.75 34.6743 39.75 34.2601V32.7601C39.75 32.3458 40.0858 32.0101 40.5 32.0101ZM34.5 20.0101H36C36.4142 20.0101 36.75 20.3459 36.75 20.7601V22.2601C36.75 22.6743 36.4142 23.0101 36 23.0101H34.5C34.0858 23.0101 33.75 22.6743 33.75 22.2601V20.7601C33.75 20.3459 34.0858 20.0101 34.5 20.0101ZM34.5 26.0101H36C36.4142 26.0101 36.75 26.3459 36.75 26.7601V28.2601C36.75 28.6743 36.4142 29.0101 36 29.0101H34.5C34.0858 29.0101 33.75 28.6743 33.75 28.2601V26.7601C33.75 26.3458 34.0858 26.0101 34.5 26.0101ZM34.5 32.0101H36C36.4142 32.0101 36.75 32.3459 36.75 32.7601V34.2601C36.75 34.6743 36.4142 35.0101 36 35.0101H34.5C34.0858 35.0101 33.75 34.6743 33.75 34.2601V32.7601C33.75 32.3458 34.0858 32.0101 34.5 32.0101ZM30 35.0101H28.5C28.0858 35.0101 27.75 34.6743 27.75 34.2601V32.7601C27.75 32.3459 28.0858 32.0101 28.5 32.0101H30C30.4142 32.0101 30.75 32.3459 30.75 32.7601V34.2601C30.75 34.6743 30.4142 35.0101 30 35.0101ZM30 29.0101H28.5C28.0858 29.0101 27.75 28.6743 27.75 28.2601V26.7601C27.75 26.3459 28.0858 26.0101 28.5 26.0101H30C30.4142 26.0101 30.75 26.3459 30.75 26.7601V28.2601C30.75 28.6743 30.4142 29.0101 30 29.0101ZM30 23.0101H28.5C28.0858 23.0101 27.75 22.6743 27.75 22.2601V20.7601C27.75 20.3459 28.0858 20.0101 28.5 20.0101H30C30.4142 20.0101 30.75 20.3459 30.75 20.7601V22.2601C30.75 22.6743 30.4142 23.0101 30 23.0101ZM38.6101 45H33.75C32.9216 45 32.25 44.3284 32.25 43.5V39.5101C32.25 38.6816 32.9216 38.0101 33.75 38.0101H38.6101C39.4385 38.0101 40.1101 38.6816 40.1101 39.5101V43.5C40.1101 44.3285 39.4385 45 38.6101 45Z" fill="#FF8900"/>
</svg>
