<svg width="33" height="48" viewBox="0 0 33 48" fill="none" xmlns="http://www.w3.org/2000/svg">
<path d="M31.4473 46.6636V31.6526V27.8558V25.9578L31.4455 25.2687V25.2097C31.4336 25.2024 31.4116 25.2061 31.395 25.2036L31.2886 25.1981L31.0742 25.1882L30.8196 25.1791C30.5309 25.1708 30.2421 25.1669 29.9531 25.1683C29.375 25.172 28.796 25.1909 28.2125 25.2615C27.6379 25.3346 27.0014 25.4536 26.4839 25.9205C26.3572 26.0381 26.2416 26.1804 26.1544 26.3497C26.1111 26.4341 26.0748 26.5244 26.049 26.6224C26.036 26.6718 26.0257 26.7217 26.0192 26.7786C26.0155 26.8006 26.014 26.8601 26.0146 26.8695V26.9287V27.878V29.5047C25.7146 29.4864 25.4144 29.4697 25.114 29.4567C24.5858 29.4336 24.057 29.4198 23.5282 29.4141V14.7441L21.8396 14.0854V7.74313L6.34631 0L1.74148 6.15767V15.9903V16.0796V46.6636H0V48H33V46.6636H31.4473ZM11.6752 39.8106C13.6581 39.4876 15.6511 39.2424 17.6501 39.0919C19.6482 38.9426 21.6526 38.8877 23.6519 38.9673C25.5866 39.0457 27.5184 39.2509 29.4149 39.6514V40.4879C27.51 40.1884 25.5915 40.0461 23.6744 39.9867C21.667 39.9266 19.6597 39.9607 17.6558 40.0559C15.6521 40.1516 13.6515 40.3092 11.6556 40.5161C9.74896 40.716 7.84867 40.9536 5.94924 41.2558V40.9879C6.86051 40.7529 7.78589 40.5466 8.70994 40.3557C9.69498 40.1539 10.6838 39.9723 11.6752 39.8106ZM9.5161 39.6738V34.147C9.80843 34.0498 10.1021 33.9572 10.3964 33.8674V39.5103C10.1027 39.5632 9.80928 39.6173 9.5161 39.6738ZM20.7408 38.4276V32.1789C21.0793 32.1696 21.4183 32.1656 21.7571 32.1656V38.4176C21.4184 38.4179 21.0793 38.4211 20.7408 38.4276ZM29.4149 41.0071V46.5819H22.2229V40.474C22.7025 40.4777 23.1823 40.4867 23.6618 40.5009C25.5878 40.5605 27.5128 40.7046 29.4149 41.0071ZM20.2755 40.4842V46.582H10.8838V41.1162C11.1555 41.0862 11.4274 41.0568 11.6991 41.0282C13.6879 40.822 15.6809 40.665 17.6758 40.5696C18.5422 40.5284 19.4086 40.5002 20.2755 40.4842ZM9.05038 41.3338V46.5819H5.94924V41.7754C6.97907 41.6107 8.01364 41.4648 9.05038 41.3338ZM23.5609 31.0459C24.5742 31.0738 25.5869 31.1329 26.5966 31.2251C27.5395 31.3129 28.4865 31.4255 29.415 31.5848V32.4478C25.4901 31.6153 21.4554 31.4453 17.4826 31.8872C15.4484 32.1132 13.4293 32.4962 11.4435 33.0333C10.4508 33.3023 9.46638 33.6095 8.49375 33.9599C8.00776 34.1351 7.52424 34.321 7.04498 34.5199C6.67642 34.6734 6.31316 34.8309 5.94934 35.0047V34.6013C7.72481 33.6588 9.59697 32.941 11.5092 32.4035C13.4695 31.8541 15.4732 31.4913 17.489 31.2753C19.5051 31.06 21.5345 30.9908 23.5609 31.0459ZM10.6964 15.0497V17.1729L9.516 16.9244V14.7329L10.6964 15.0497ZM9.5161 14.2035V12.5747L10.6965 12.9431V14.5205L9.5161 14.2035ZM10.6964 17.6964V19.6932L9.516 19.509V17.4478L10.6964 17.6964ZM10.6964 20.2124V22.4131L9.516 22.3046V20.0284L10.6964 20.2124ZM10.6964 22.9293V25.0093L9.516 24.9632V22.8208L10.6964 22.9293ZM10.6964 25.5238V27.5015H9.5161V25.4778L10.6964 25.5238ZM10.6964 28.0158V31.1871C10.301 31.311 9.90739 31.4421 9.516 31.5812V28.0158H10.6964ZM12.4019 15.5076V17.532L11.1622 17.2709V15.1749L12.4019 15.5076ZM11.1622 14.6455V13.0882L12.4019 13.4752V14.9782L11.1622 14.6455ZM12.4019 18.0556V19.9592L11.1622 19.7655V17.7944L12.4019 18.0556ZM12.4019 20.4786V22.5698L11.1622 22.4558V20.285L12.4019 20.4786ZM12.4019 23.0861V25.0759L11.1622 25.0272V22.9719L12.4019 23.0861ZM12.4019 25.5903V27.5016H11.1622V25.5419L12.4019 25.5903ZM12.4019 28.0158V30.7001C12.0955 30.7794 11.7899 30.8617 11.485 30.949C11.3774 30.9801 11.2698 31.0129 11.1622 31.0449V28.0159H12.4019V28.0158ZM14.2312 15.9987V17.9172L12.8675 17.63V15.6326L14.2312 15.9987ZM12.8675 15.1032V13.6202L14.2312 14.0458V15.4693L12.8675 15.1032ZM14.2312 18.4408V20.2447L12.8675 20.0318V18.1538L14.2312 18.4408ZM14.2312 20.7638V22.738L12.8675 22.6128V20.5512L14.2312 20.7638ZM14.2312 23.254V25.1468L12.8675 25.0937V23.1288L14.2312 23.254ZM14.2312 25.6619V27.5016H12.8675V25.6084L14.2312 25.6619ZM14.2312 28.0158V30.2747C13.7753 30.3687 13.3207 30.4717 12.8675 30.5829V28.0159H14.2312V28.0158ZM16.0084 16.4756V18.2915L14.6969 18.0153V16.1235L16.0084 16.4756ZM14.6968 15.5945V14.1911L16.0083 14.6004V15.9464L14.6968 15.5945ZM16.0084 18.8152V20.5218L14.6969 20.3171V18.539L16.0084 18.8152ZM16.0084 21.0413V22.901L14.6969 22.7805V20.8369L16.0084 21.0413ZM16.0084 23.4172V25.2164L14.6969 25.1654V23.2967L16.0084 23.4172ZM16.0084 25.7311V27.5015H14.6969V25.6797L16.0084 25.7311ZM16.0084 28.0158V29.9494C15.5704 30.0196 15.1331 30.0972 14.6969 30.1819V28.0158H16.0084ZM17.8419 16.9678V18.6776L16.4742 18.3897V16.6007L17.8419 16.9678ZM16.4742 16.0714V14.7456L17.8419 15.1723V16.4384L16.4742 16.0714ZM17.8419 19.2013V20.8078L16.4742 20.5944V18.9135L17.8419 19.2013ZM17.8419 21.3273V23.0694L16.4742 22.944V21.114L17.8419 21.3273ZM17.8419 23.5857V25.2881L16.4742 25.2343V23.46L17.8419 23.5857ZM17.8419 25.8025V27.5015H16.4742V25.7492L17.8419 25.8025ZM17.8419 28.0158V29.6997C17.3854 29.7518 16.9293 29.8113 16.4742 29.8784V28.0158H17.8419ZM19.5788 17.4339V19.0435L18.3074 18.7757V17.0927L19.5788 17.4339ZM18.3074 16.5635V15.3176L19.5788 15.7141V16.9048L18.3074 16.5635ZM19.5788 19.5669V21.0787L18.3074 20.8804V19.2994L19.5788 19.5669ZM19.5788 21.5983V23.2292L18.3074 23.1125V21.3999L19.5788 21.5983ZM19.5788 23.7452V25.3557L18.3074 25.306V23.6285L19.5788 23.7452ZM19.5788 25.8704V27.5015H18.3074V25.8207L19.5788 25.8704ZM19.5788 28.0158V29.5363C19.1545 29.5678 18.7308 29.6048 18.3074 29.6486V28.0158H19.5788ZM21.3736 17.9161V19.4214L20.0443 19.1415V17.559L21.3736 17.9161ZM20.0443 17.0299V15.8594L21.3736 16.2743V17.3867L20.0443 17.0299ZM21.3736 19.9452V21.3587L20.0443 21.1514V19.6653L21.3736 19.9452ZM21.3736 21.8781V23.3942L20.0443 23.2717V21.6709L21.3736 21.8781ZM21.3736 23.9102V25.4255L20.0443 25.3738V23.788L21.3736 23.9102ZM21.3736 25.9403V27.5016H20.0443V25.8885L21.3736 25.9403ZM21.3736 28.0158V29.4389C21.0945 29.4484 20.8152 29.4596 20.5366 29.4744C20.3723 29.4831 20.2083 29.493 20.0443 29.5037V28.0159H21.3736V28.0158ZM6.64536 0.714121L21.3736 8.07506V13.9036L7.2035 8.37468L6.64536 9.15274V0.714121ZM2.2071 16.1692L7.05 9.41709V32.589C6.91449 32.6526 6.77964 32.7168 6.64536 32.7836V12.6221L2.95985 17.0367V46.039H5.48352V46.582H2.2072V16.1692H2.2071Z" fill="#FF8900"/>
</svg>
