<svg width="24" height="24" viewBox="0 0 24 24" fill="none" xmlns="http://www.w3.org/2000/svg">
<path d="M2.707 24H11.511C11.925 24 12.261 23.664 12.261 23.25C12.261 23.09 12.251 16.41 12.25 16.25C12.25 15.836 11.914 15.5 11.5 15.5H9.25V13H11.5C11.914 13 12.25 12.664 12.25 12.25V9.433C12.25 6.989 14.239 5 16.683 5H18.75V7.5H17.5C16.535 7.5 15.75 8.285 15.75 9.25V12.25C15.75 12.664 16.086 13 16.5 13H19.54L18.915 15.5H16.5C16.086 15.5 15.75 15.836 15.75 16.25V23.25C15.75 23.664 16.086 24 16.5 24H21.293C22.786 24 24 22.786 24 21.293V2.707C24 1.214 22.786 0 21.293 0H2.707C1.214 0 0 1.214 0 2.707V21.294C0 22.786 1.214 24 2.707 24ZM1.5 2.707C1.5 2.041 2.041 1.5 2.707 1.5H21.294C21.96 1.5 22.501 2.041 22.501 2.707V21.294C22.501 21.96 21.96 22.501 21.294 22.501H17.25V17H19.5C19.844 17 20.144 16.766 20.228 16.432L21.228 12.432C21.346 11.959 20.989 11.5 20.5 11.5H17.25V9.25C17.25 9.114 17.364 9 17.5 9H19.5C19.914 9 20.25 8.664 20.25 8.25V4.25C20.25 3.836 19.914 3.5 19.5 3.5H16.683C13.412 3.5 10.75 6.162 10.75 9.433V11.5H8.5C8.086 11.5 7.75 11.836 7.75 12.25V16.25C7.75 16.664 8.086 17 8.5 17H10.75V22.5H2.707C2.041 22.5 1.5 21.959 1.5 21.293V2.707Z" fill="white"/>
</svg>
