<svg width="49" height="42" viewBox="0 0 49 42" fill="none" xmlns="http://www.w3.org/2000/svg"><path d="M9.95312 32.8125H11.4844V34.125H9.95312V32.8125Z" fill="white"/><path d="M13.0156 32.8125H14.5469V34.125H13.0156V32.8125Z" fill="white"/><path d="M16.0781 32.8125H17.6094V34.125H16.0781V32.8125Z" fill="white"/><path d="M19.1406 32.8125H20.6719V34.125H19.1406V32.8125Z" fill="white"/><path d="M22.2031 32.8125H23.7344V34.125H22.2031V32.8125Z" fill="white"/><path d="M25.2656 32.8125H26.7969V34.125H25.2656V32.8125Z" fill="white"/><path d="M28.3281 32.8125H29.8594V34.125H28.3281V32.8125Z" fill="white"/><path d="M31.3906 32.8125H32.9219V34.125H31.3906V32.8125Z" fill="white"/><path d="M34.4531 32.8125H35.9844V34.125H34.4531V32.8125Z" fill="white"/><path d="M37.5156 32.8125H39.0469V34.125H37.5156V32.8125Z" fill="white"/><path d="M9.95312 34.7812H11.4844V36.0938H9.95312V34.7812Z" fill="white"/><path d="M13.0156 34.7812H14.5469V36.0938H13.0156V34.7812Z" fill="white"/><path d="M16.0781 34.7812H17.6094V36.0938H16.0781V34.7812Z" fill="white"/><path d="M19.1406 34.7812H20.6719V36.0938H19.1406V34.7812Z" fill="white"/><path d="M22.2031 34.7812H23.7344V36.0938H22.2031V34.7812Z" fill="white"/><path d="M25.2656 34.7812H26.7969V36.0938H25.2656V34.7812Z" fill="white"/><path d="M28.3281 34.7812H29.8594V36.0938H28.3281V34.7812Z" fill="white"/><path d="M31.3906 34.7812H32.9219V36.0938H31.3906V34.7812Z" fill="white"/><path d="M34.4531 34.7812H35.9844V36.0938H34.4531V34.7812Z" fill="white"/><path d="M37.5156 34.7812H39.0469V36.0938H37.5156V34.7812Z" fill="white"/><path d="M9.95312 36.75H11.4844V38.0625H9.95312V36.75Z" fill="white"/><path d="M13.0156 36.75H14.5469V38.0625H13.0156V36.75Z" fill="white"/><path d="M16.0781 36.75H17.6094V38.0625H16.0781V36.75Z" fill="white"/><path d="M19.1406 36.75H29.8594V38.0625H19.1406V36.75Z" fill="white"/><path d="M31.3906 36.75H32.9219V38.0625H31.3906V36.7" fill="white"/><path d="M34.4531 36.75H35.9844V38.0625H34.4531V36.75Z" fill="white"/><path d="M37.5156 36.75H39.0469V38.0625H37.5156V36.75Z" fill="white"/><path d="M9.1875 3.28125H10.7188V4.59375H9.1875V3.28125Z" fill="white"/><path d="M12.25 3.28125H13.7812V4.59375H12.25V3.28125Z" fill="white"/><path d="M15.3125 3.28125H16.8438V4.59375H15.3125V3.28125Z" fill="white"/>
<path d="M11.4844 9.84375C11.2813 9.84375 11.0866 9.91289 10.943 10.036C10.7994 10.159 10.7188 10.326 10.7188 10.5V22.9688C10.7188 23.1428 10.7994 23.3097 10.943 23.4328C11.0866 23.5559 11.2813 23.625 11.4844 23.625C11.6874 23.625 11.8822 23.5559 12.0258 23.4328C12.1693 23.3097 12.25 23.1428 12.25 22.9688V10.5C12.25 10.326 12.1693 10.159 12.0258 10.036C11.8822 9.91289 11.6874 9.84375 11.4844 9.84375Z" fill="white"/>
<path d="M16.8438 12.4688C17.0082 12.469 17.1683 12.4238 17.3004 12.34C17.4325 12.2561 17.5296 12.138 17.5773 12.0032C17.6251 11.8683 17.6209 11.7239 17.5655 11.5912C17.51 11.4586 17.4062 11.3448 17.2695 11.2666L15.925 10.5001L17.2664 9.73358C17.3501 9.68575 17.4219 9.62427 17.4778 9.55264C17.5338 9.48101 17.5727 9.40064 17.5924 9.31612C17.6121 9.2316 17.6121 9.14458 17.5926 9.06003C17.5731 8.97548 17.5343 8.89506 17.4785 8.82336C17.4227 8.75166 17.3509 8.69008 17.2674 8.64214C17.1838 8.5942 17.0901 8.56084 16.9914 8.54396C16.8928 8.52708 16.7913 8.52701 16.6927 8.54376C16.594 8.56051 16.5002 8.59375 16.4166 8.64158L14.1197 9.95408C14.0148 10.014 13.9288 10.0952 13.8694 10.1905C13.8099 10.2857 13.7788 10.3921 13.7788 10.5001C13.7788 10.6081 13.8099 10.7145 13.8694 10.8097C13.9288 10.905 14.0148 10.9862 14.1197 11.0461L16.4166 12.3586C16.543 12.4309 16.6918 12.4693 16.8438 12.4688Z" fill="white"/>
<path d="M22.3316 12.1768C22.3874 12.2485 22.4591 12.3101 22.5427 12.358C22.6263 12.406 22.72 12.4394 22.8186 12.4562C22.9172 12.4731 23.0188 12.4732 23.1174 12.4564C23.2161 12.4397 23.3099 12.4064 23.3935 12.3586L25.6904 11.0461C25.7953 10.9862 25.8812 10.905 25.9407 10.8097C26.0002 10.7145 26.0313 10.6081 26.0313 10.5001C26.0313 10.3921 26.0002 10.2857 25.9407 10.1905C25.8812 10.0952 25.7953 10.014 25.6904 9.95408L23.3935 8.64158C23.2246 8.54499 23.0178 8.50987 22.8186 8.54396C22.6195 8.57805 22.4443 8.67856 22.3316 8.82337C22.2189 8.96817 22.1779 9.14542 22.2177 9.31612C22.2575 9.48682 22.3747 9.63699 22.5437 9.73358L23.8874 10.5001L22.546 11.2666C22.4621 11.3143 22.3901 11.3756 22.3339 11.4472C22.2778 11.5187 22.2386 11.5991 22.2187 11.6836C22.1988 11.7681 22.1985 11.8552 22.2179 11.9398C22.2373 12.0245 22.2759 12.105 22.3316 12.1768Z" fill="white"/>
<path d="M18.8983 13.0916C19.0909 13.1464 19.301 13.1335 19.4825 13.0556C19.6639 12.9777 19.8019 12.8412 19.866 12.6762L21.3973 8.73867C21.4291 8.65679 21.4417 8.57036 21.4345 8.4843C21.4273 8.39824 21.4004 8.31424 21.3553 8.23709C21.3103 8.15994 21.2479 8.09116 21.1718 8.03467C21.0957 7.97818 21.0074 7.93509 20.9119 7.90785C20.8164 7.88062 20.7155 7.86978 20.6151 7.87595C20.5147 7.88212 20.4167 7.90518 20.3267 7.94382C20.2367 7.98245 20.1565 8.0359 20.0906 8.10112C20.0246 8.16634 19.9744 8.24204 19.9426 8.32392L18.4114 12.2614C18.3796 12.3433 18.367 12.4298 18.3743 12.5159C18.3816 12.602 18.4087 12.686 18.4539 12.7631C18.4991 12.8402 18.5617 12.9089 18.6379 12.9653C18.7142 13.0216 18.8027 13.0646 18.8983 13.0916Z" fill="white"/>
<path d="M14.5469 14.4375H19.1406V15.75H14.5469V14.4375Z" fill="white"/>
<path d="M20.6719 14.4375H22.2031V15.75H20.6719V14.4375Z" fill="white"/>
<path d="M17.6094 17.0625H26.7969V18.375H17.6094V17.0625Z" fill="white"/>
<path d="M31.3906 17.0625H38.2812V18.375H31.3906V17.0625Z" fill="white"/>
<path d="M17.6094 19.6875H19.1406V21H17.6094V19.6875Z" fill="white"/>
<path d="M20.6719 19.6875H29.8594V21H20.6719V19.6875Z" fill="white"/>
<path d="M31.3906 19.6875H34.4531V21H31.3906V19.6875Z" fill="white"/>
<path d="M14.5469 22.3125H19.1406V23.625H14.5469V22.3125Z" fill="white"/>
<path d="M20.6719 22.3125H22.2031V23.625H20.6719V22.3125Z" fill="white"/>
<path d="M28.3281 17.0625H29.8594V18.375H28.3281V17.0625Z" fill="white"/>
<path d="M45.1719 12.4688H42.875V3.28125C42.875 2.75911 42.633 2.25835 42.2023 1.88913C41.7715 1.51992 41.1873 1.3125 40.5781 1.3125H8.42188C7.81271 1.3125 7.22849 1.51992 6.79774 1.88913C6.36699 2.25835 6.125 2.75911 6.125 3.28125V24.2812C6.125 24.8034 6.36699 25.3042 6.79774 25.6734C7.22849 26.0426 7.81271 26.25 8.42188 26.25H40.5781C41.1873 26.25 41.7715 26.0426 42.2023 25.6734C42.633 25.3042 42.875 24.8034 42.875 24.2812V13.7812H45.1719C45.3749 13.7812 45.5697 13.8504 45.7133 13.9735C45.8568 14.0965 45.9375 14.2635 45.9375 14.4375V26.9062C45.9375 27.0803 45.8568 27.2472 45.7133 27.3703C45.5697 27.4934 45.3749 27.5625 45.1719 27.5625H15.3125C14.6497 27.4845 13.9766 27.6188 13.4222 27.9398C13.2839 28.0639 13.1766 28.2108 13.1067 28.3716C13.0368 28.5323 13.0058 28.7036 13.0156 28.875V30.1875H9.1875C8.57833 30.1875 7.99411 30.3949 7.56336 30.7641C7.13262 31.1333 6.89062 31.6341 6.89062 32.1562V38.7188C6.89062 39.2409 7.13262 39.7417 7.56336 40.1109C7.99411 40.4801 8.57833 40.6875 9.1875 40.6875H39.8125C40.4217 40.6875 41.0059 40.4801 41.4366 40.1109C41.8674 39.7417 42.1094 39.2409 42.1094 38.7188V32.1562C42.1094 31.6341 41.8674 31.1333 41.4366 30.7641C41.0059 30.3949 40.4217 30.1875 39.8125 30.1875H14.5469V28.875C14.6908 28.8606 45.1719 28.875 45.1719 28.875C45.781 28.875 46.3653 28.6676 46.796 28.2984C47.2268 27.9292 47.4688 27.4284 47.4688 26.9062V14.4375C47.4688 13.9154 47.2268 13.4146 46.796 13.0454C46.3653 12.6762 45.781 12.4688 45.1719 12.4688ZM8.42188 2.625H40.5781C40.7812 2.625 40.9759 2.69414 41.1195 2.81721C41.2631 2.94028 41.3438 3.1072 41.3438 3.28125V5.25H7.65625V3.28125C7.65625 3.1072 7.73691 2.94028 7.8805 2.81721C8.02408 2.69414 8.21882 2.625 8.42188 2.625ZM40.5781 24.9375H8.42188C8.21882 24.9375 8.02408 24.8684 7.8805 24.7453C7.73691 24.6222 7.65625 24.4553 7.65625 24.2812V6.5625H41.3438V24.2812C41.3438 24.4553 41.2631 24.6222 41.1195 24.7453C40.9759 24.8684 40.7812 24.9375 40.5781 24.9375ZM40.5781 32.1562V38.7188C40.5781 38.8928 40.4975 39.0597 40.3539 39.1828C40.2103 39.3059 40.0156 39.375 39.8125 39.375H9.1875C8.98444 39.375 8.7897 39.3059 8.64612 39.1828C8.50254 39.0597 8.42188 38.8928 8.42188 38.7188V32.1562C8.42188 31.9822 8.50254 31.8153 8.64612 31.6922C8.7897 31.5691 8.98444 31.5 9.1875 31.5H39.8125C40.0156 31.5 40.2103 31.5691 40.3539 31.6922C40.4975 31.8153 40.5781 31.9822 40.5781 32.1562Z" fill="white"/>
</svg>
