<svg width="45" height="52" viewBox="0 0 45 52" fill="none" xmlns="http://www.w3.org/2000/svg">
<path d="M4.07678 27.8953L0.0295666 49.1976C-0.0901091 49.8069 0.160122 50.4379 0.660584 50.8078C0.943453 51.0254 1.2916 51.1342 1.63975 51.1342C1.90086 51.1342 2.15109 51.0689 2.39044 50.9492L11.4858 46.2383L21.4842 50.971C21.9302 51.1777 22.4416 51.1777 22.8876 50.971L32.8751 46.2383L41.9705 50.9492C42.5253 51.243 43.1999 51.1777 43.7003 50.8078C44.2008 50.4379 44.4401 49.8069 44.3313 49.1976L40.2732 27.8953C40.1862 27.4057 39.8707 26.9923 39.4355 26.7638C37.7383 25.85 36.1281 25.1319 34.5071 24.5226C36.0737 21.4764 37.1726 18.2125 37.1726 14.9921C37.1726 6.7236 30.449 0 22.1805 0C13.9119 0 7.18835 6.7236 7.18835 14.9921C7.18835 18.2016 8.27631 21.4546 9.83209 24.49C6.98164 25.5888 4.96891 26.7312 4.87099 26.7856C4.45757 27.0141 4.16382 27.4275 4.07678 27.8953ZM22.1805 3.26388C28.6429 3.26388 33.9087 8.52961 33.9087 14.9921C33.9087 23.0648 25.2703 32.1819 22.1805 35.1847C19.0906 32.1819 10.4522 23.0648 10.4522 14.9921C10.4522 8.52961 15.718 3.26388 22.1805 3.26388ZM11.4858 27.3513C15.446 33.5962 20.7552 38.3289 21.1034 38.6444C21.408 38.9164 21.7997 39.0578 22.1805 39.0578C22.5612 39.0578 22.9529 38.9164 23.2575 38.6444C23.6057 38.3289 28.8932 33.618 32.8534 27.3949C34.3003 27.9062 35.7256 28.5155 37.2161 29.277L40.4908 46.5103L33.6584 42.9745C33.2015 42.746 32.6684 42.7242 32.2115 42.9527L22.1805 47.6962L12.1495 42.9418C11.6925 42.7242 11.1485 42.7351 10.7025 42.9636L3.85919 46.4995L7.13395 29.2553C7.97168 28.831 9.5601 28.0694 11.4858 27.3513Z" fill="black"/>
<path d="M31.3197 14.9924C31.3197 9.95513 27.2181 5.85352 22.1809 5.85352C17.1436 5.85352 13.042 9.95513 13.042 14.9924C13.042 20.0296 17.1436 24.1313 22.1809 24.1313C27.2181 24.1313 31.3197 20.0296 31.3197 14.9924ZM16.3059 14.9924C16.3059 11.7503 18.9387 9.1174 22.1809 9.1174C25.423 9.1174 28.0559 11.7503 28.0559 14.9924C28.0559 18.2345 25.423 20.8674 22.1809 20.8674C18.9387 20.8674 16.3059 18.2345 16.3059 14.9924Z" fill="black"/>
</svg>
