<svg width="45" height="45" viewBox="0 0 45 45" fill="none" xmlns="http://www.w3.org/2000/svg">
<path d="M7.4176 0.00171805C6.25101 0.0187251 5.13262 0.481921 4.30644 1.30829C4.30644 1.30829 2.30685 3.30778 1.30659 4.30814C0.45946 5.15537 -0.00334567 6.30553 1.82091e-05 7.4984C0.00237879 8.33543 0.0990174 10.8658 1.81633 15.1591C3.54719 19.4863 6.91035 25.2802 13.3089 31.6788C19.7074 38.0773 25.5014 41.4405 29.8285 43.1714C34.1218 44.8887 36.6523 44.9853 37.4893 44.9877C38.6822 44.991 39.8323 44.5284 40.6795 43.6811L43.6794 40.6812C45.6668 38.6938 45.3148 35.307 42.9822 33.75L33.9914 27.7474C32.213 26.5603 29.8211 26.8028 28.311 28.3127L27.9683 28.6555C26.3533 27.8087 24.2439 26.8704 21.1806 23.8071C17.8877 20.5143 17.1499 18.6172 16.3322 17.0194L16.6749 16.6766C18.1849 15.1667 18.4274 12.7747 17.2403 10.9963L11.2377 2.00552C10.3902 0.735778 8.94824 -0.0217515 7.4176 0.00171805ZM22.3436 0.00171805C21.9682 0.0483534 21.6244 0.235056 21.3808 0.524441C21.1373 0.813826 21.012 1.18453 21.0302 1.56232C21.0483 1.94012 21.2085 2.29711 21.4787 2.56182C21.7489 2.82652 22.109 2.9794 22.4871 2.98984C33.2739 2.98984 41.9978 11.7138 41.9978 22.5006C41.9792 22.708 42.004 22.9171 42.0706 23.1144C42.1372 23.3118 42.2442 23.4931 42.3848 23.6469C42.5253 23.8006 42.6964 23.9234 42.887 24.0074C43.0776 24.0914 43.2836 24.1348 43.4919 24.1348C43.7002 24.1348 43.9062 24.0914 44.0968 24.0074C44.2874 23.9234 44.4585 23.8006 44.599 23.6469C44.7396 23.4931 44.8466 23.3118 44.9132 23.1144C44.9798 22.9171 45.0046 22.708 44.986 22.5006C44.9859 10.0926 34.8951 0.00171805 22.4871 0.00171805C22.4393 -0.000572682 22.3914 -0.000572682 22.3436 0.00171805ZM7.46154 2.98984C7.97418 2.98418 8.44895 3.23663 8.73589 3.66657L14.7385 12.6573C15.14 13.2588 15.0615 14.0364 14.5481 14.5498L13.3206 15.7802C13.0913 16.0096 12.9424 16.3072 12.8965 16.6283C12.8505 16.9495 12.9099 17.2768 13.0657 17.5614C13.7553 18.8264 15.0333 21.9076 19.0566 25.931C22.8408 29.7152 26.1085 31.2035 27.4263 31.9219C27.7109 32.0778 28.0382 32.1371 28.3594 32.0912C28.6805 32.0452 28.9781 31.8964 29.2075 31.6671L30.4379 30.4396C30.9512 29.926 31.7288 29.8476 32.3304 30.2492L41.3211 36.2518C42.138 36.7971 42.2457 37.8642 41.5555 38.5544L38.5527 41.5542C38.2733 41.8337 37.8897 42.0007 37.4893 41.9995C36.7938 41.9976 34.9106 41.9706 30.9359 40.3824C26.9951 38.8061 21.5669 35.683 15.4357 29.5519C9.30459 23.4208 6.18157 17.9926 4.60525 14.0518C3.01537 10.0771 2.99011 8.19393 2.98814 7.4984C2.98701 7.09817 3.15367 6.7148 3.43343 6.43498C4.43347 5.43485 6.43328 3.4322 6.43328 3.4322C6.70661 3.15896 7.07326 2.99551 7.46154 2.98984ZM22.4871 5.98969C22.0889 5.98969 21.7071 6.14787 21.4255 6.42943C21.1439 6.711 20.9857 7.09288 20.9857 7.49108C20.9857 7.88927 21.1439 8.27115 21.4255 8.55272C21.7071 8.83428 22.0889 8.99246 22.4871 8.99246C29.9603 8.99246 35.9952 15.0273 35.9952 22.5006C35.9952 22.8987 36.1534 23.2806 36.435 23.5622C36.7165 23.8438 37.0984 24.0019 37.4966 24.0019C37.8948 24.0019 38.2767 23.8438 38.5582 23.5622C38.8398 23.2806 38.998 22.8987 38.998 22.5006C38.998 13.4061 31.5816 5.98969 22.4871 5.98969ZM22.4871 11.9923C22.2873 11.9878 22.0886 12.0233 21.9027 12.0967C21.7168 12.17 21.5475 12.2798 21.4046 12.4195C21.2617 12.5592 21.1481 12.7261 21.0706 12.9103C20.9931 13.0945 20.9532 13.2924 20.9532 13.4922C20.9532 13.6921 20.9931 13.8899 21.0706 14.0741C21.1481 14.2583 21.2617 14.4252 21.4046 14.5649C21.5475 14.7047 21.7168 14.8144 21.9027 14.8878C22.0886 14.9612 22.2873 14.9966 22.4871 14.9922C26.6468 14.9922 29.9955 18.3409 29.9955 22.5006C30.0042 22.8926 30.1661 23.2656 30.4464 23.5398C30.7268 23.814 31.1033 23.9676 31.4955 23.9676C31.8876 23.9676 32.2641 23.814 32.5445 23.5398C32.8248 23.2656 32.9867 22.8926 32.9954 22.5006C32.9954 16.7196 28.2681 11.9923 22.4871 11.9923Z" fill="white"/>
</svg>
