<svg width="27" height="24" viewBox="0 0 27 24" fill="none" xmlns="http://www.w3.org/2000/svg">
<path d="M0.465967 11.6541L7.06878 14.9965C7.32416 15.1245 7.62567 15.1153 7.8698 14.9702L13.747 11.4998L10.1896 14.7017C10.0085 14.8651 9.90499 15.0982 9.90499 15.3439V23.1428C9.90499 23.9656 10.9389 24.3118 11.4238 23.6582L14.278 19.8038L21.3364 23.8867C21.8315 24.1758 22.466 23.8856 22.5807 23.3108L26.983 1.02812C27.1146 0.358499 26.4587 -0.187713 25.8489 0.0613963L0.53572 10.0886C-0.1438 10.3583 -0.187676 11.3239 0.465967 11.6541ZM25.0254 2.22796L21.1564 21.8104L14.4681 17.9412C14.1036 17.7298 13.6345 17.8235 13.3757 18.1709L11.5925 20.5786V15.729L21.2127 7.07187C21.9743 6.38739 21.0991 5.17041 20.2294 5.6892L7.41529 13.2562L2.92416 10.9833L25.0254 2.22796Z" fill="white"/>
</svg>
