<svg width="33" height="48" fill="none" xmlns="http://www.w3.org/2000/svg"><path d="M31.447 46.664V25.958l-.002-.69v-.058c-.011-.008-.033-.004-.05-.006l-.106-.006-.215-.01-.254-.009a25.8 25.8 0 00-.867-.01c-.578.003-1.157.022-1.74.093-.575.073-1.212.192-1.73.659-.126.117-.241.26-.329.429a1.346 1.346 0 00-.135.429.747.747 0 00-.004.09v2.636a48.186 48.186 0 00-2.486-.09v-14.67l-1.69-.66V7.743L6.347 0 1.741 6.158v40.506H0V48h33v-1.336h-1.553zM11.675 39.81a69.737 69.737 0 015.975-.72 52.527 52.527 0 016.002-.124c1.935.079 3.866.284 5.763.684v.837c-1.905-.3-3.823-.442-5.74-.501a77.774 77.774 0 00-6.02.069c-2.003.096-4.004.253-6 .46-1.906.2-3.806.438-5.706.74v-.268a58.336 58.336 0 012.76-.632 74.657 74.657 0 012.966-.545zm-2.159-.137v-5.527c.292-.097.586-.19.88-.28v5.643c-.293.053-.587.107-.88.164zm11.225-1.246v-6.25c.338-.008.677-.012 1.016-.012v6.252c-.339 0-.678.003-1.016.01zm8.674 2.58v5.574h-7.192v-6.108c.48.004.96.013 1.439.027 1.926.06 3.85.204 5.753.506zm-9.14-.524v6.098h-9.391v-5.466a107.979 107.979 0 016.792-.547c.866-.04 1.733-.069 2.6-.085zm-11.225.85v5.248h-3.1v-4.807c1.03-.164 2.064-.31 3.1-.441zm14.51-10.288c1.014.028 2.027.087 3.037.18.942.087 1.89.2 2.818.359v.863a37.49 37.49 0 00-11.932-.56 40.084 40.084 0 00-6.04 1.145 38.43 38.43 0 00-2.95.927c-.485.175-.969.361-1.448.56-.369.153-.732.31-1.096.485V34.6c1.776-.942 3.648-1.66 5.56-2.197 1.96-.55 3.964-.913 5.98-1.129a45.531 45.531 0 016.072-.23zM10.697 15.05v2.123l-1.18-.249v-2.191l1.18.317zm-1.18-.847v-1.628l1.18.368v1.578l-1.18-.318zm1.18 3.493v1.997l-1.18-.184v-2.061l1.18.248zm0 2.516v2.201l-1.18-.108v-2.277l1.18.184zm0 2.717v2.08l-1.18-.046v-2.142l1.18.108zm0 2.595V27.5h-1.18v-2.023l1.18.046zm0 2.492v3.171a32.91 32.91 0 00-1.18.394v-3.565h1.18zm1.706-12.508v2.024l-1.24-.261v-2.096l1.24.333zm-1.24-.862v-1.558l1.24.387v1.503l-1.24-.332zm1.24 3.41v1.903l-1.24-.194v-1.97l1.24.26zm0 2.423v2.09l-1.24-.113v-2.171l1.24.194zm0 2.607v1.99l-1.24-.049v-2.055l1.24.114zm0 2.504v1.912h-1.24v-1.96l1.24.048zm0 2.426V30.7c-.306.08-.612.162-.917.249-.108.031-.215.064-.323.096v-3.03h1.24zm1.83-12.017v1.918l-1.364-.287v-1.997l1.363.366zm-1.364-.896V13.62l1.363.426v1.423l-1.364-.366zm1.363 3.338v1.804l-1.364-.213v-1.878l1.364.287zm0 2.323v1.974l-1.364-.125V20.55l1.364.213zm0 2.49v1.893l-1.364-.053v-1.965l1.364.125zm0 2.408v1.84h-1.364v-1.894l1.364.054zm0 2.354v2.259c-.456.094-.91.197-1.364.308v-2.567h1.364zm1.777-11.54v1.816l-1.311-.277v-1.892l1.311.353zm-1.311-.881V14.19l1.311.41v1.345l-1.311-.351zm1.311 3.22v1.707l-1.311-.205V18.54l1.311.276zm0 2.226v1.86l-1.311-.12v-1.944l1.311.204zm0 2.376v1.8l-1.311-.052v-1.868l1.311.12zm0 2.314v1.77h-1.311V25.68l1.311.051zm0 2.285v1.933c-.438.07-.875.148-1.311.233v-2.166h1.311zm1.834-11.048v1.71l-1.368-.288V16.6l1.368.368zm-1.368-.897v-1.325l1.368.426v1.266l-1.368-.367zm1.368 3.13v1.607l-1.368-.214v-1.68l1.368.287zm0 2.126v1.742l-1.368-.125v-1.83l1.368.213zm0 2.259v1.702l-1.368-.054V23.46l1.368.126zm0 2.216v1.7h-1.368v-1.753l1.368.053zm0 2.214V29.7c-.457.052-.913.111-1.368.178v-1.862h1.368zm1.737-10.582v1.61l-1.272-.268v-1.683l1.272.34zm-1.272-.87v-1.246l1.272.396v1.19l-1.272-.34zm1.272 3.003v1.512l-1.272-.199V19.3l1.272.267zm0 2.031v1.631l-1.272-.116V21.4l1.272.198zm0 2.147v1.61l-1.272-.049v-1.678l1.272.117zm0 2.125v1.631h-1.272v-1.68l1.272.05zm0 2.146v1.52c-.425.032-.848.069-1.272.113v-1.633h1.272zm1.795-10.1v1.505l-1.33-.28V17.56l1.33.357zm-1.33-.886v-1.17l1.33.414v1.113l-1.33-.357zm1.33 2.915v1.414l-1.33-.208v-1.486l1.33.28zm0 1.933v1.516l-1.33-.122V21.67l1.33.207zm0 2.032v1.515l-1.33-.051v-1.586l1.33.122zm0 2.03v1.562h-1.33v-1.613l1.33.051zm0 2.076v1.423a44.005 44.005 0 00-1.33.065v-1.488h1.33zM6.645.714l14.729 7.361v5.829l-14.17-5.53-.559.779V.714zM2.207 16.17L7.05 9.417V32.59c-.136.064-.27.128-.405.195V12.622L2.96 17.037v29.002h2.524v.543H2.207V16.169z" fill="#FF8900"/></svg>