<svg width="48" height="48" fill="none" xmlns="http://www.w3.org/2000/svg"><path d="M43.5 0H27a.75.75 0 00-.75.75v4.926a.75.75 0 00.448.686l16.5 7.26a.75.75 0 001.052-.686V.75A.75.75 0 0043.5 0zM33 6h-1.5a.75.75 0 01-.75-.75v-1.5A.75.75 0 0131.5 3H33a.75.75 0 01.75.75v1.5A.75.75 0 0133 6zm6 0h-1.5a.75.75 0 01-.75-.75v-1.5A.75.75 0 0137.5 3H39a.75.75 0 01.75.75v1.5A.75.75 0 0139 6zM21 0H4.5a.75.75 0 00-.75.75v4.926a.75.75 0 00.448.686l16.5 7.26a.75.75 0 001.052-.686V.75A.75.75 0 0021 0zM10.5 6H9a.75.75 0 01-.75-.75v-1.5A.75.75 0 019 3h1.5a.75.75 0 01.75.75v1.5a.75.75 0 01-.75.75zm6 0H15a.75.75 0 01-.75-.75v-1.5A.75.75 0 0115 3h1.5a.75.75 0 01.75.75v1.5a.75.75 0 01-.75.75z" fill="#FF8900"/><path d="M43.095 45a.752.752 0 01-.75-.75c0-.42.345-.75.75-.75H45a.75.75 0 00.75-.75V17.04a.764.764 0 00-.435-.675l-19.5-8.805a.749.749 0 00-1.065.675l-.03 35.985a.766.766 0 01-.675.78h-.075a.748.748 0 01-.675-.795L23.25 17.04a.764.764 0 00-.435-.675L3.315 7.56a.749.749 0 00-1.065.675V42.75c0 .414.336.75.75.75h1.89c.405 0 .75.345.75.75 0 .42-.345.75-.75.75H.75a.75.75 0 00-.75.75v1.5c0 .414.336.75.75.75h46.5a.75.75 0 00.75-.75v-1.5a.75.75 0 00-.75-.75h-4.155zM12 20.01h1.5a.75.75 0 01.75.75v1.5a.75.75 0 01-.75.75H12a.75.75 0 01-.75-.75v-1.5a.75.75 0 01.75-.75zm0 6h1.5a.75.75 0 01.75.75v1.5a.75.75 0 01-.75.75H12a.75.75 0 01-.75-.75v-1.5a.75.75 0 01.75-.75zm0 6h1.5a.75.75 0 01.75.75v1.5a.75.75 0 01-.75.75H12a.75.75 0 01-.75-.75v-1.5a.75.75 0 01.75-.75zm-4.5 3H6a.75.75 0 01-.75-.75v-1.5a.75.75 0 01.75-.75h1.5a.75.75 0 01.75.75v1.5a.75.75 0 01-.75.75zm0-6H6a.75.75 0 01-.75-.75v-1.5a.75.75 0 01.75-.75h1.5a.75.75 0 01.75.75v1.5a.75.75 0 01-.75.75zm0-6H6a.75.75 0 01-.75-.75v-1.5a.75.75 0 01.75-.75h1.5a.75.75 0 01.75.75v1.5a.75.75 0 01-.75.75zM16.11 45h-4.86a1.5 1.5 0 01-1.5-1.5v-3.99a1.5 1.5 0 011.5-1.5h4.86a1.5 1.5 0 011.5 1.5v3.99a1.5 1.5 0 01-1.5 1.5zm3.39-9.99H18a.75.75 0 01-.75-.75v-1.5a.75.75 0 01.75-.75h1.5a.75.75 0 01.75.75v1.5a.75.75 0 01-.75.75zm0-6H18a.75.75 0 01-.75-.75v-1.5a.75.75 0 01.75-.75h1.5a.75.75 0 01.75.75v1.5a.75.75 0 01-.75.75zm0-6H18a.75.75 0 01-.75-.75v-1.5a.75.75 0 01.75-.75h1.5a.75.75 0 01.75.75v1.5a.75.75 0 01-.75.75zm21-3H42a.75.75 0 01.75.75v1.5a.75.75 0 01-.75.75h-1.5a.75.75 0 01-.75-.75v-1.5a.75.75 0 01.75-.75zm0 6H42a.75.75 0 01.75.75v1.5a.75.75 0 01-.75.75h-1.5a.75.75 0 01-.75-.75v-1.5a.75.75 0 01.75-.75zm0 6H42a.75.75 0 01.75.75v1.5a.75.75 0 01-.75.75h-1.5a.75.75 0 01-.75-.75v-1.5a.75.75 0 01.75-.75zm-6-12H36a.75.75 0 01.75.75v1.5a.75.75 0 01-.75.75h-1.5a.75.75 0 01-.75-.75v-1.5a.75.75 0 01.75-.75zm0 6H36a.75.75 0 01.75.75v1.5a.75.75 0 01-.75.75h-1.5a.75.75 0 01-.75-.75v-1.5a.75.75 0 01.75-.75zm0 6H36a.75.75 0 01.75.75v1.5a.75.75 0 01-.75.75h-1.5a.75.75 0 01-.75-.75v-1.5a.75.75 0 01.75-.75zm-4.5 3h-1.5a.75.75 0 01-.75-.75v-1.5a.75.75 0 01.75-.75H30a.75.75 0 01.75.75v1.5a.75.75 0 01-.75.75zm0-6h-1.5a.75.75 0 01-.75-.75v-1.5a.75.75 0 01.75-.75H30a.75.75 0 01.75.75v1.5a.75.75 0 01-.75.75zm0-6h-1.5a.75.75 0 01-.75-.75v-1.5a.75.75 0 01.75-.75H30a.75.75 0 01.75.75v1.5a.75.75 0 01-.75.75zM38.61 45h-4.86a1.5 1.5 0 01-1.5-1.5v-3.99a1.5 1.5 0 011.5-1.5h4.86a1.5 1.5 0 011.5 1.5v3.99a1.5 1.5 0 01-1.5 1.5z" fill="#FF8900"/></svg>