<svg width="48" height="48" fill="none" xmlns="http://www.w3.org/2000/svg"><path d="M.774 24.776a.774.774 0 00.774-.774c0-.504 0-1.007.047-1.495a.776.776 0 00-1.549-.1C0 22.933 0 23.475 0 24.002a.774.774 0 00.774.774zm1.487-8.996a.774.774 0 00-.984.48 22.778 22.778 0 00-.774 3.035.774.774 0 00.604.905.522.522 0 00.155 0 .774.774 0 00.774-.619c.191-.961.45-1.908.774-2.833a.774.774 0 00-.55-.968zm41.664-5.156a.775.775 0 00-1.285.867c.552.81 1.048 1.655 1.486 2.532a.775.775 0 00.69.433c.12 0 .24-.03.348-.085a.774.774 0 00.348-1.037 24.935 24.935 0 00-1.587-2.71zM40.852 9.17a.774.774 0 101.161-1.022 23.994 23.994 0 00-2.222-2.214.774.774 0 10-1.014 1.169 22.754 22.754 0 012.075 2.067zM3.174 14.48a.775.775 0 00.697-.425 22.43 22.43 0 011.47-2.54.774.774 0 00-1.284-.867 24.348 24.348 0 00-1.549 2.718.774.774 0 00.666 1.114zM28.644.453a.775.775 0 00-.915.915.773.773 0 00.613.61c.96.195 1.907.454 2.833.774a.72.72 0 00.248.039.774.774 0 00.774-.527.774.774 0 00-.488-.975 22.672 22.672 0 00-3.066-.836zM9.203 7.117a.776.776 0 00-1.021-1.169 24.871 24.871 0 00-2.214 2.214.774.774 0 00.07 1.13.774.774 0 001.09-.069 21.87 21.87 0 012.076-2.106zm13.308-5.52a23.224 23.224 0 012.934 0 .774.774 0 00.783-1.02.775.775 0 00-.682-.528 24.92 24.92 0 00-3.135 0 .775.775 0 00.054 1.549h.046zm-8.09 1.224a.774.774 0 00-1.037-.349c-.938.458-1.846.975-2.717 1.549a.774.774 0 00.86 1.285 23 23 0 012.538-1.432.773.773 0 00.356-1.053zm2.106-.039a.775.775 0 00.248-.046 23.496 23.496 0 012.833-.775.774.774 0 00-.302-1.517 24.41 24.41 0 00-3.05.829.774.774 0 00.256 1.51h.015zm28.713 13.95c.32.924.578 1.868.774 2.826a.774.774 0 00.774.627h.155a.774.774 0 00.604-.914 23.91 23.91 0 00-.774-3.027.777.777 0 10-1.47.504l-.063-.016zM34.59 2.457a.788.788 0 00-.69 1.417c.882.43 1.733.919 2.548 1.463a.774.774 0 00.86-1.285 24.994 24.994 0 00-2.718-1.595zm12.533 19.222a.775.775 0 00-.72.828c0 .488.047.991.047 1.494a.774.774 0 101.548 0c0-.526 0-1.068-.054-1.594a.773.773 0 00-.82-.728zm-13.06-9.36a13.16 13.16 0 01-9.29 4.646v.843a.774.774 0 11-1.548 0v-.774a13.162 13.162 0 01-9.29-4.645v10.064h20.129V12.32z" fill="#FF8900"/><path d="M18.967 7.744v2.323H14.19a11.612 11.612 0 0019.617 0h-4.776V7.744a1.161 1.161 0 00-1.161-1.161h-7.742a1.161 1.161 0 00-1.161 1.161zm2.322 1.161h5.42v1.162h-5.42V8.905zm16.644 32.128a3.87 3.87 0 100-7.742 3.87 3.87 0 000 7.742zm5.419.774H32.514a4.645 4.645 0 00-4.645 4.645V48h20.128v-1.548a4.645 4.645 0 00-4.645-4.645zm-33.288-.774a3.87 3.87 0 100-7.742 3.87 3.87 0 000 7.742zm10.064 5.419a4.645 4.645 0 00-4.645-4.645H4.645A4.645 4.645 0 000 46.452V48h20.128v-1.548z" fill="#FF8900"/></svg>