<svg width="49" height="42" fill="none" xmlns="http://www.w3.org/2000/svg"><path d="M9.953 32.813h1.531v1.312h-1.53v-1.313zm3.063 0h1.53v1.312h-1.53v-1.313zm3.062 0h1.531v1.312h-1.53v-1.313zm3.062 0h1.532v1.312H19.14v-1.313zm3.063 0h1.531v1.312h-1.53v-1.313zm3.063 0h1.53v1.312h-1.53v-1.313zm3.062 0h1.531v1.312h-1.53v-1.313zm3.062 0h1.532v1.312H31.39v-1.313zm3.063 0h1.531v1.312h-1.53v-1.313zm3.063 0h1.53v1.312h-1.53v-1.313zM9.953 34.781h1.531v1.313h-1.53V34.78zm3.063 0h1.53v1.313h-1.53V34.78zm3.062 0h1.531v1.313h-1.53V34.78zm3.062 0h1.532v1.313H19.14V34.78zm3.063 0h1.531v1.313h-1.53V34.78zm3.063 0h1.53v1.313h-1.53V34.78zm3.062 0h1.531v1.313h-1.53V34.78zm3.062 0h1.532v1.313H31.39V34.78zm3.063 0h1.531v1.313h-1.53V34.78zm3.063 0h1.53v1.313h-1.53V34.78zM9.953 36.75h1.531v1.313h-1.53V36.75zm3.063 0h1.53v1.313h-1.53V36.75zm3.062 0h1.531v1.313h-1.53V36.75zm3.062 0h10.72v1.313H19.14V36.75zm12.25 0h1.532v1.313H31.39V36.7m3.063.05h1.531v1.313h-1.53V36.75zm3.063 0h1.53v1.313h-1.53V36.75zM9.188 3.281h1.53v1.313h-1.53V3.28zm3.062 0h1.531v1.313H12.25V3.28zm3.063 0h1.53v1.313h-1.53V3.28zm-3.829 6.563a.835.835 0 00-.541.192.612.612 0 00-.224.464v12.469c0 .174.08.34.224.464a.835.835 0 00.541.192c.203 0 .398-.07.542-.192a.613.613 0 00.224-.464V10.5a.613.613 0 00-.224-.464.835.835 0 00-.542-.192zm5.36 2.625a.854.854 0 00.456-.129.668.668 0 00.277-.337.568.568 0 00-.012-.412.683.683 0 00-.296-.324l-1.344-.767 1.341-.766a.72.72 0 00.212-.181.608.608 0 00.114-.237.565.565 0 000-.256.608.608 0 00-.113-.237.722.722 0 00-.212-.18.89.89 0 00-.85 0l-2.297 1.31a.704.704 0 00-.25.236.583.583 0 00-.091.31c0 .108.03.214.09.31.06.095.146.176.25.236l2.298 1.313c.126.072.275.11.427.11zm5.488-.292a.72.72 0 00.21.181.89.89 0 00.85 0l2.298-1.312a.705.705 0 00.25-.236.583.583 0 00.091-.31.583.583 0 00-.09-.31.705.705 0 00-.25-.236l-2.297-1.312a.871.871 0 00-.575-.098.781.781 0 00-.487.28.581.581 0 00-.114.492c.04.17.157.321.326.418l1.343.766-1.341.767a.722.722 0 00-.212.18.61.61 0 00-.115.237.564.564 0 00-.001.256c.02.085.058.165.114.237zm-3.434.915a.883.883 0 00.585-.036.698.698 0 00.383-.38l1.531-3.937a.57.57 0 00-.042-.502.68.68 0 00-.183-.202.808.808 0 00-.26-.127.887.887 0 00-.585.036.762.762 0 00-.236.157.64.64 0 00-.148.223L18.41 12.26a.568.568 0 00.043.502.683.683 0 00.184.202c.076.057.165.1.26.127zm-4.351 1.346h4.594v1.312h-4.594v-1.313zm6.125 0h1.531v1.312h-1.531v-1.313zm-3.062 2.625h9.187v1.312h-9.188v-1.313zm13.78 0h6.891v1.312h-6.89v-1.313zm-13.78 2.625h1.53V21h-1.53v-1.313zm3.062 0h9.187V21h-9.187v-1.313zm10.718 0h3.063V21h-3.062v-1.313zm-16.843 2.625h4.594v1.312h-4.594v-1.313zm6.125 0h1.531v1.312h-1.531v-1.313zm7.656-5.25h1.531v1.312h-1.53v-1.313z" fill="#fff"/><path d="M45.172 12.469h-2.297V3.28c0-.522-.242-1.023-.673-1.392a2.505 2.505 0 00-1.624-.577H8.422c-.61 0-1.194.208-1.624.577-.431.37-.673.87-.673 1.392v21c0 .522.242 1.023.673 1.392.43.37 1.015.577 1.624.577h32.156c.61 0 1.194-.207 1.624-.577.431-.369.673-.87.673-1.392v-10.5h2.297c.203 0 .398.07.541.192a.61.61 0 01.224.464v12.47a.61.61 0 01-.224.463.835.835 0 01-.541.192h-29.86a3.08 3.08 0 00-1.89.378 1.254 1.254 0 00-.315.432c-.07.16-.101.332-.091.503v1.313H9.187c-.609 0-1.193.207-1.624.576-.43.37-.672.87-.672 1.392v6.563c0 .522.242 1.023.672 1.392.431.37 1.015.577 1.625.577h30.624c.61 0 1.194-.208 1.625-.577.43-.37.672-.87.672-1.392v-6.563c0-.522-.242-1.023-.672-1.392a2.504 2.504 0 00-1.624-.576H14.547v-1.313c.144-.014 30.625 0 30.625 0 .609 0 1.193-.207 1.624-.577.43-.369.673-.87.673-1.392V14.438c0-.523-.242-1.023-.673-1.393a2.504 2.504 0 00-1.624-.576zM8.422 2.625h32.156c.203 0 .398.07.541.192.144.123.225.29.225.464V5.25H7.656V3.281c0-.174.08-.34.224-.464a.835.835 0 01.542-.192zm32.156 22.313H8.422a.835.835 0 01-.542-.193.613.613 0 01-.224-.464V6.563h33.688V24.28a.61.61 0 01-.224.464.835.835 0 01-.542.192zm0 7.218v6.563c0 .174-.08.34-.224.464a.835.835 0 01-.541.192H9.186a.835.835 0 01-.54-.192.613.613 0 01-.225-.464v-6.563c0-.174.08-.34.224-.464a.835.835 0 01.541-.192h30.626c.203 0 .397.07.54.192.145.123.225.29.225.464z" fill="#fff"/></svg>