<svg width="24" height="24" fill="none" xmlns="http://www.w3.org/2000/svg"><path d="M17.028 0H6.972A6.98 6.98 0 000 6.972v10.056A6.98 6.98 0 006.972 24h10.056A6.98 6.98 0 0024 17.028V6.972A6.98 6.98 0 0017.028 0zm5.097 17.028a5.102 5.102 0 01-5.097 5.097H6.972a5.102 5.102 0 01-5.097-5.097V6.972a5.102 5.102 0 015.097-5.097h10.056a5.102 5.102 0 015.097 5.097v10.056z" fill="#fff"/><path d="M12 5.531A6.476 6.476 0 005.531 12 6.476 6.476 0 0012 18.469 6.476 6.476 0 0018.469 12 6.476 6.476 0 0012 5.531zm0 11.063A4.599 4.599 0 017.406 12 4.599 4.599 0 0112 7.406 4.599 4.599 0 0116.594 12 4.599 4.599 0 0112 16.594zm6.563-10.219a.937.937 0 100-1.875.937.937 0 000 1.875z" fill="#fff"/></svg>