<svg width="48" height="50" fill="none" xmlns="http://www.w3.org/2000/svg"><path d="M35.604 8.54H12.438a3.293 3.293 0 00-3.287 3.287v12.557l-5.823-4.116 3.856-3.255a1.258 1.258 0 00-1.62-1.922L.445 19.413a1.256 1.256 0 00-.446.96V44.95a4.552 4.552 0 004.543 4.543h38.692a4.552 4.552 0 004.543-4.543V20.372a1.256 1.256 0 00-.446-.96l-4.857-4.102a1.258 1.258 0 00-2.013.576 1.257 1.257 0 00.39 1.344l3.716 3.137-5.675 4.017V11.829a3.292 3.292 0 00-3.29-3.288zm-23.942 3.287a.774.774 0 01.773-.773h23.169a.773.773 0 01.773.773v14.335l-12.356 8.741-12.358-8.741-.001-14.335zM43.235 46.98H4.547a2.036 2.036 0 01-2.03-2.03V22.77l14.945 10.572-10.573 8.095a1.258 1.258 0 101.529 1.995l11.192-8.57 3.685 2.61a1.257 1.257 0 001.45 0l3.685-2.61 11.194 8.57a1.257 1.257 0 001.528-1.995l-10.57-8.095 14.686-10.389V44.95a2.035 2.035 0 01-2.033 2.03z" fill="#000"/><path d="M17.06 17.056h13.92a1.257 1.257 0 000-2.514H17.06a1.257 1.257 0 100 2.514zm0 5.237h13.92a1.257 1.257 0 000-2.513H17.06a1.256 1.256 0 100 2.513zm10.787 3.981a1.256 1.256 0 00-1.256-1.257h-9.53a1.256 1.256 0 100 2.513h9.53a1.257 1.257 0 001.256-1.256zm2.077-21.566L24.704.297a1.257 1.257 0 00-1.622 0l-5.22 4.41a1.256 1.256 0 001.623 1.92L23.89 2.9l4.412 3.726a1.256 1.256 0 001.622-1.918z" fill="#000"/></svg>