<svg width="45" height="52" fill="none" xmlns="http://www.w3.org/2000/svg"><path d="M4.077 27.895L.03 49.198c-.12.609.13 1.24.63 1.61.283.217.632.326.98.326.26 0 .511-.065.75-.185l9.096-4.71 9.998 4.732c.446.207.958.207 1.404 0l9.987-4.733 9.096 4.711a1.633 1.633 0 001.73-.141c.5-.37.74-1.001.63-1.61l-4.058-21.303a1.6 1.6 0 00-.838-1.131 39.793 39.793 0 00-4.928-2.241c1.567-3.047 2.666-6.31 2.666-9.53C37.173 6.722 30.449 0 22.18 0 13.912 0 7.188 6.724 7.188 14.992c0 3.21 1.088 6.463 2.644 9.498-2.85 1.099-4.863 2.241-4.961 2.296a1.61 1.61 0 00-.794 1.11zM22.18 3.264c6.462 0 11.728 5.266 11.728 11.728 0 8.073-8.639 17.19-11.729 20.193-3.09-3.003-11.728-12.12-11.728-20.193 0-6.462 5.266-11.728 11.728-11.728zM11.485 27.35c3.96 6.245 9.27 10.978 9.617 11.293a1.63 1.63 0 001.077.414c.381 0 .773-.142 1.078-.414.348-.315 5.635-5.026 9.595-11.25a35.441 35.441 0 014.363 1.883l3.275 17.233-6.833-3.535a1.613 1.613 0 00-1.447-.022l-10.03 4.743-10.032-4.754a1.648 1.648 0 00-1.446.022l-6.844 3.535 3.275-17.244a43.696 43.696 0 014.352-1.904z" fill="#000"/><path d="M31.32 14.992c0-5.037-4.102-9.138-9.14-9.138-5.036 0-9.138 4.101-9.138 9.138 0 5.038 4.102 9.14 9.139 9.14 5.037 0 9.139-4.102 9.139-9.14zm-15.014 0a5.878 5.878 0 015.875-5.875 5.878 5.878 0 015.875 5.875 5.878 5.878 0 01-5.875 5.875 5.878 5.878 0 01-5.875-5.875z" fill="#000"/></svg>