<svg width="45" height="45" fill="none" xmlns="http://www.w3.org/2000/svg"><path d="M7.418.002a4.487 4.487 0 00-3.112 1.306l-3 3A4.487 4.487 0 000 7.498c.002.837.099 3.368 1.816 7.661C3.547 19.486 6.91 25.28 13.31 31.68c6.398 6.398 12.192 9.762 16.52 11.492 4.293 1.718 6.823 1.814 7.66 1.817a4.487 4.487 0 003.19-1.307l3-3c1.988-1.987 1.636-5.374-.697-6.931l-8.99-6.003a4.516 4.516 0 00-5.681.566l-.343.343c-1.615-.847-3.724-1.786-6.787-4.849-3.293-3.293-4.031-5.19-4.849-6.788l.343-.342a4.516 4.516 0 00.565-5.68l-6.002-8.991A4.515 4.515 0 007.418.002zm14.926 0a1.5 1.5 0 00.143 2.988c10.787 0 19.51 8.724 19.51 19.51a1.5 1.5 0 102.989 0c0-12.407-10.09-22.498-22.499-22.498a1.5 1.5 0 00-.143 0zM7.462 2.99c.512-.006.987.247 1.274.677l6.002 8.99c.402.602.324 1.38-.19 1.893l-1.227 1.23a1.5 1.5 0 00-.255 1.781c.69 1.265 1.967 4.347 5.99 8.37 3.785 3.784 7.052 5.272 8.37 5.99a1.5 1.5 0 001.782-.254l1.23-1.227a1.484 1.484 0 011.892-.19l8.991 6.002c.817.545.925 1.612.235 2.302l-3.003 3c-.28.28-.663.447-1.064.445-.695-.001-2.578-.028-6.553-1.617-3.94-1.576-9.37-4.699-15.5-10.83-6.131-6.131-9.254-11.56-10.83-15.5-1.59-3.975-1.616-5.858-1.618-6.554a1.51 1.51 0 01.445-1.063l3-3.003c.274-.273.64-.436 1.029-.442zm15.025 3a1.501 1.501 0 000 3.002 13.492 13.492 0 0113.508 13.509 1.501 1.501 0 003.003 0c0-9.095-7.416-16.511-16.51-16.511zm0 6.002a1.5 1.5 0 100 3 7.492 7.492 0 017.509 7.509 1.5 1.5 0 003 0c0-5.781-4.728-10.509-10.509-10.509z" fill="#fff"/></svg>