<svg width="19" height="18" fill="none" xmlns="http://www.w3.org/2000/svg"><path d="M17.386 13.064v2.258c.001.21-.046.417-.138.61a1.516 1.516 0 01-.396.505c-.169.142-.368.25-.586.317a1.795 1.795 0 01-.676.073 17.322 17.322 0 01-7.11-2.31C6.489 13.36 4.8 11.819 3.536 10a14.097 14.097 0 01-2.53-6.526c-.02-.208.007-.417.08-.616.073-.198.19-.38.345-.534a1.65 1.65 0 01.551-.362 1.77 1.77 0 01.664-.128h2.472c.4-.004.788.125 1.09.364.304.238.502.569.558.93.104.723.298 1.432.577 2.115.11.27.135.563.069.844s-.219.54-.44.745l-1.046.955c1.172 1.885 2.88 3.445 4.943 4.517l1.046-.956a1.7 1.7 0 01.815-.402 1.8 1.8 0 01.924.063c.747.255 1.524.432 2.315.527a1.7 1.7 0 011.027.517c.262.282.4.642.39 1.01z" stroke="#fff" stroke-width="2" stroke-linecap="round" stroke-linejoin="round"/></svg>