<svg width="27" height="24" fill="none" xmlns="http://www.w3.org/2000/svg"><path d="M.466 11.654l6.603 3.342a.835.835 0 00.8-.026l5.878-3.47-3.557 3.202a.864.864 0 00-.285.642v7.799c0 .823 1.034 1.169 1.519.515l2.854-3.854 7.058 4.083a.84.84 0 001.245-.576l4.402-22.283c.132-.67-.524-1.216-1.134-.967L.536 10.09c-.68.27-.724 1.235-.07 1.565zm24.56-9.426l-3.87 19.582-6.688-3.869a.837.837 0 00-1.092.23l-1.784 2.408v-4.85l9.62-8.657c.762-.685-.113-1.902-.983-1.383L7.415 13.256l-4.49-2.273 22.1-8.755z" fill="#fff"/></svg>