<svg width="49" height="70" fill="none" xmlns="http://www.w3.org/2000/svg"><path d="M8.93 21.802c.327 8.047 6.77 19.41 15.577 19.41 8.659 0 15.033-10.983 15.55-19.002 2.338-.041 3.384-1.142 3.86-2.42.49-1.318.476-3.235-1.835-4.784C40.722 6.402 33.274 0 24.507 0S8.292 6.402 6.933 14.992c-.231.15-2.148 1.332-1.59 3.752.665 2.936 3.792 3.099 3.588 3.058zm15.577 17.18c-6.782 0-12.817-9.147-13.32-16.827 4.322.598 9.161.87 13.932.87 4.445 0 8.821-.217 12.682-.584-.612 7.611-6.593 16.542-13.294 16.542zm4.459-36.1v2.69a4.46 4.46 0 01-4.459 4.46 4.47 4.47 0 01-4.458-4.46v-2.69a15.579 15.579 0 018.917 0zM8.958 16.637S9.46 7.612 17.834 3.75v1.822c0 3.683 3.003 6.687 6.687 6.687 3.683 0 6.687-3.004 6.687-6.687V3.75c8.564 4.377 8.876 12.886 8.876 12.886s.938.04 1.495.815c.965 1.332-.081 2.338-.788 2.42-8.957 1.114-22.291 1.44-31.915-.34-.815-.15-1.277-.775-1.345-1.278-.259-1.481 1.427-1.617 1.427-1.617z" fill="#FF8900"/><path d="M36.101 37.311s-4.948 6.117-11.594 6.117c-6.77 0-11.594-6.117-11.594-6.117S.285 42.11 0 56.79v12.26h49V56.802c.014-14.543-12.899-19.49-12.899-19.49zm1.767 20.606v8.903H11.146v-8.903h26.722zm-13.361-12.26c3.874 0 7.761-1.672 11.132-4.73v14.76H13.375v-14.76c3.37 3.058 7.258 4.73 11.132 4.73zM2.229 56.802c0-6.524 3.439-12.6 8.903-16.025v14.924h-2.23v11.133H2.23V56.802zM46.784 66.82h-6.687V55.688h-2.229V40.764c5.478 3.438 8.903 9.5 8.903 16.025v10.03h.014z" fill="#FF8900"/></svg>